<svg width="16" height="7" viewBox="0 0 16 7" fill="none" xmlns="http://www.w3.org/2000/svg">
<rect width="16" height="7" fill="#BBBBBB"/>
<g id="&#208;&#186;&#209;&#128;&#208;&#181;&#208;&#176;&#209;&#130;&#208;&#184;&#208;&#178;&#208;&#189;&#209;&#139;&#208;&#185; &#208;&#178;&#208;&#176;&#209;&#128;&#208;&#184;&#208;&#176;&#208;&#189;&#209;&#130;">
<path d="M-1686 -5889H4824V-6027H-1686V-5889ZM4757 -5956V3752H4895V-5956H4757ZM4824 3685H-1686V3823H4824V3685ZM-1619 3752V-5956H-1757V3752H-1619ZM-1686 3685C-1648.99 3685 -1619 3715 -1619 3752H-1757C-1757 3791.21 -1725.21 3823 -1686 3823V3685ZM4757 3752C4757 3715 4787 3685 4824 3685V3823C4863.21 3823 4895 3791.21 4895 3752H4757ZM4824 -5889C4786.99 -5889 4757 -5919 4757 -5956H4895C4895 -5995.21 4863.21 -6027 4824 -6027V-5889ZM-1686 -6027C-1725.21 -6027 -1757 -5995.21 -1757 -5956H-1619C-1619 -5919 -1649 -5889 -1686 -5889V-6027Z" fill="#C0FF0E"/>
<g id="&#208;&#152;&#209;&#130;&#208;&#190;&#208;&#179;&#208;&#190;&#208;&#178;&#209;&#139;&#208;&#185; &#208;&#178;&#208;&#176;&#209;&#128;&#208;&#184;&#208;&#176;&#208;&#189;&#209;&#130;" clip-path="url(#clip0_680_1405)">
<rect width="1920" height="9284" transform="translate(-903 -5630)" fill="white"/>
<g id="Group 3336718">
<g id="Group 3336701">
<path id="Vector 531" d="M1 1L8 6L15 1" stroke="#DA3738" stroke-width="2" stroke-linecap="round" stroke-linejoin="round"/>
</g>
</g>
</g>
</g>
<defs>
<clipPath id="clip0_680_1405">
<rect width="1920" height="9284" fill="white" transform="translate(-903 -5630)"/>
</clipPath>
</defs>
</svg>
